<?xml version="1.0" standalone="no"?>
<!DOCTYPE svg PUBLIC "-//W3C//DTD SVG 20010904//EN"
 "http://www.w3.org/TR/2001/REC-SVG-20010904/DTD/svg10.dtd">
<svg version="1.0" xmlns="http://www.w3.org/2000/svg"
 width="3840.000000pt" height="2160.000000pt" viewBox="0 0 3840.000000 2160.000000"
 preserveAspectRatio="xMidYMid meet">

<g transform="translate(0.000000,2160.000000) scale(0.100000,-0.100000)"
fill="#000000" stroke="none">
<path d="M7355 13173 c-443 -17 -824 -62 -1020 -118 -215 -62 -316 -154 -448
-405 -78 -149 -135 -292 -251 -632 l-102 -297 -159 -80 c-271 -135 -408 -259
-545 -492 -105 -177 -154 -403 -196 -889 -21 -258 -30 -805 -15 -1000 21 -275
65 -475 137 -625 56 -118 91 -145 232 -175 280 -60 584 -59 880 1 106 21 140
36 175 78 37 45 47 84 55 227 l7 129 1917 3 1917 2 5 -32 c3 -18 7 -82 10
-141 7 -136 35 -195 108 -233 35 -18 183 -49 307 -63 279 -34 720 3 827 70 92
57 183 307 220 604 43 357 21 1101 -46 1560 -48 327 -155 553 -353 741 -116
111 -202 169 -370 249 l-132 62 -84 249 c-170 506 -277 742 -410 902 -129 155
-295 204 -866 257 -447 41 -1367 65 -1800 48z m1020 -393 c640 -23 1090 -62
1258 -107 47 -13 66 -25 99 -62 81 -92 208 -391 346 -813 45 -136 90 -265 101
-287 36 -70 83 -105 238 -175 188 -85 293 -155 373 -248 113 -133 169 -278
200 -522 66 -522 77 -1179 25 -1504 -20 -122 -51 -220 -73 -226 -103 -31 -567
-34 -598 -4 -3 4 -10 75 -16 160 -11 170 -22 203 -83 256 -19 18 -48 35 -63
39 -15 5 -990 8 -2168 8 l-2141 0 -48 -30 c-77 -48 -93 -88 -106 -275 -6 -85
-13 -157 -15 -160 -10 -10 -128 -18 -270 -19 -147 -1 -303 13 -335 30 -18 9
-43 91 -64 209 -52 298 -43 987 20 1502 34 281 95 428 234 568 87 88 176 144
353 221 134 59 188 100 223 169 14 27 68 178 121 337 106 315 212 579 273 683
48 80 106 135 158 150 128 36 493 81 818 99 207 12 832 12 1140 1z"/>
<path d="M8853 12036 c-141 -46 -231 -184 -221 -339 6 -91 33 -154 92 -211 74
-72 124 -91 236 -91 83 0 101 4 146 27 67 35 138 115 164 186 27 71 24 173 -8
244 -29 67 -102 141 -165 169 -64 28 -183 35 -244 15z"/>
<path d="M7170 11926 c0 -2 8 -10 18 -17 15 -13 16 -12 3 4 -13 16 -21 21 -21
13z"/>
<path d="M8654 11140 c-11 -4 -33 -22 -47 -40 l-27 -32 0 -602 c0 -637 0 -641
48 -705 46 -62 82 -71 307 -71 189 0 203 1 245 23 26 13 57 40 75 65 l30 44 3
619 c3 685 5 661 -62 693 -29 14 -73 16 -293 15 -142 0 -267 -4 -279 -9z"/>
<path d="M28864 11958 l-19 -23 23 19 c21 18 27 26 19 26 -2 0 -12 -10 -23
-22z"/>
<path d="M12999 11927 c-27 -14 -57 -42 -76 -71 l-33 -48 0 -1038 0 -1037 23
-42 c12 -24 42 -57 66 -75 39 -28 50 -31 116 -31 65 0 78 3 116 30 26 18 53
50 68 80 l26 49 3 996 c2 691 0 1010 -8 1046 -29 133 -180 204 -301 141z"/>
<path d="M14070 11934 c-46 -20 -77 -50 -103 -99 l-22 -40 -3 -975 c-2 -536 0
-1003 3 -1037 8 -72 44 -134 101 -173 31 -21 49 -25 110 -25 64 0 77 3 116 30
23 17 54 51 68 75 l25 45 5 787 5 786 140 -110 c77 -60 190 -149 250 -197 102
-81 623 -490 949 -747 269 -211 382 -299 481 -377 346 -272 365 -286 411 -293
95 -14 178 27 218 108 l26 52 0 1020 c0 1144 5 1065 -73 1133 -99 87 -262 61
-321 -52 -21 -39 -21 -51 -24 -827 -1 -434 -5 -788 -8 -788 -2 0 -48 35 -102
77 -154 122 -268 212 -397 313 -66 52 -160 126 -210 165 -49 39 -133 104 -185
145 -52 41 -147 115 -210 165 -196 155 -620 489 -655 515 -18 14 -113 88 -210
164 -98 77 -194 148 -214 158 -43 22 -123 23 -171 2z"/>
<path d="M17605 11932 c-49 -24 -79 -55 -100 -104 -13 -33 -15 -159 -15 -1060
0 -1146 -5 -1067 73 -1135 98 -86 247 -60 314 55 l28 47 3 417 3 418 1167 2
1167 3 40 22 c50 27 80 58 100 105 31 76 10 170 -51 232 -59 59 8 56 -1259 56
l-1165 0 0 270 0 270 1163 -2 1163 -3 42 27 c47 32 92 101 99 156 11 86 -42
178 -125 214 -41 18 -95 19 -1325 24 -1252 5 -1283 5 -1322 -14z"/>
<path d="M21445 11935 c-262 -58 -468 -262 -536 -531 -19 -79 -20 -107 -17
-665 l3 -584 31 -88 c80 -222 229 -371 452 -451 l87 -31 875 0 875 0 79 28
c207 73 377 231 445 411 48 129 51 171 51 740 0 567 -3 614 -49 737 -47 123
-155 257 -271 334 -37 24 -109 59 -161 77 l-94 33 -855 2 c-682 1 -867 -1
-915 -12z m1762 -433 c58 -30 111 -86 137 -141 20 -45 21 -60 24 -575 3 -596
3 -598 -67 -677 -21 -25 -63 -58 -92 -74 l-54 -30 -815 0 -815 0 -51 27 c-28
15 -70 48 -93 74 -71 81 -71 81 -71 665 0 506 1 520 22 576 14 38 37 73 68
103 85 83 37 79 955 77 l810 -2 42 -23z"/>
<path d="M33709 9633 c-13 -16 -12 -17 4 -4 9 7 17 15 17 17 0 8 -8 3 -21 -13z"/>
</g>
</svg>
